<svg xmlns="http://www.w3.org/2000/svg" viewBox="115 2 196 189" style="filter: drop-shadow( 0px 0px 20px rgba(177, 49, 13, 0.3));">
	<defs>
		<radialGradient id="verloop" cx="223.11" cy="91.5" r="88.75" gradientTransform="rotate(40.72 346.41 137.28) scale(1 2)" gradientUnits="userSpaceOnUse">
			<stop offset="0" stop-color="#f6d435" stop-opacity=".9"/>
			<stop offset="1" stop-color="#b1310d"/>
		</radialGradient>
		<style>
			.cls-3 {
				fill: #fff
			}
		</style>
	</defs>
	<g>
		<path class="cls-3" d="M194.38 9.69a5.69 5.69 0 01-.59.76 49.28 49.28 0 00-9.78 13 58.31 58.31 0 00-4.72 13.16 59.3 59.3 0 01-2.91 8.61c-2.13 4.83-6.19 7.07-10.93 8.19a2.68 2.68 0 00-.59.12c-.25.14-.6.32-.64.54a.94.94 0 00.35.78 46.43 46.43 0 006.15 3.25c3.64 1.38 7.11.3 10.43-1.48 1.38-.74 1.67-.49 1.79 1.18.18 2.48.35 5 .7 7.42a16.3 16.3 0 003.77 7.67c2.3 2.92 4.54 5.9 6.79 8.87a12.23 12.23 0 01.76 1.39l-1.44-.31a14.28 14.28 0 00-13.77 4.09 4.82 4.82 0 01-.78.56 4.29 4.29 0 01-.32-1.12 33 33 0 00-1.17-9.88A32.63 32.63 0 00172 66.16c-2.29-3-4.92-5.81-7.43-8.67a3.48 3.48 0 00-1.08-.58 4.18 4.18 0 00-.08 1.35c1.33 4.68 2.81 9.3 4 14 1 3.92 1.71 7.92 2.55 11.89a2.31 2.31 0 01.08.73c-.05.32-.1.79-.29.89a1.1 1.1 0 01-.9-.18c-1.49-.88-2.91-1.88-4.43-2.68-3.17-1.68-6.4-1.41-9.63-.11-.34.14-.93.26-1.08.08a1.63 1.63 0 01-.23-1.22c2-9.18.24-17.72-4-25.77q-5.67-10.65-11.75-21.07a29.23 29.23 0 00-5-6.17A9.63 9.63 0 00124.3 26a2 2 0 01-.69.05c-.24-.05-.57-.16-.65-.34a.85.85 0 01.16-.74c3.19-3.64 6.94-6.26 11.75-6.86 3.71-.46 7.48-.64 11-2.32 1.4-.67 2.74-1.46 4.12-2.17.28-.14.74-.34.88-.21a1.37 1.37 0 01.33 1 30.41 30.41 0 00.35 9.85 110.2 110.2 0 003 10.77c1.42 4 3.18 7.87 4.87 11.76a7.13 7.13 0 001.39 1.64 7.43 7.43 0 00.95-1.8q1.44-6.72 2.74-13.48c1-5.32 3.45-9.63 7.95-12.46a172.14 172.14 0 0119-10.45 24.17 24.17 0 012.68-.92zM133.55 160c.18-.68.32-1.37.54-2 1.23-3.71 2.37-7.46 3.76-11.1.93-2.43 2.21-4.71 3.35-7.06 1.59-3.28 3.22-6.54 4.78-9.83 1.76-3.7 3.59-7.38 5.15-11.17 2.51-6.1 4.29-12.43 4-19.16a26.49 26.49 0 00-1.13-6 7.18 7.18 0 00-3.24-4l.07-.38a6.38 6.38 0 011.62-.09c3.13.59 6.25 1.2 9.36 1.9 1.83.41 3.61 1 5.43 1.51a1.73 1.73 0 011.39 2 80.24 80.24 0 01-2.37 18.21c-1.63 7.06-3.39 14.09-4.79 21.2-1.21 6.08-2 12.26-1.26 18.51a37.42 37.42 0 001 5.25 2.3 2.3 0 001.37 1.34 21.23 21.23 0 007.41 1.1 7.5 7.5 0 005.68-3c2.46-3.31 4.69-6.82 7.06-10.21 1.56-2.22 2.95-4.67 4.87-6.51 2.9-2.77 6.38-4.57 10.54-3.67a34.38 34.38 0 013.65 1.37 18.14 18.14 0 003.36.9c.86.12 1.16.52 1.08 1.28-.1 1-.33 2-.47 3-.69 4.82-2.33 9.36-3.81 13.94a1.72 1.72 0 01-.88 1c-.23.07-.68-.43-1-.75-1.68-1.95-3.3-4-5-5.87a12.71 12.71 0 00-5.41-3.3c-1.8-.64-3.26.28-4.44 1.5-1.88 1.94-3.61 4-5.41 6.07-2 2.24-3.95 4.6-7 5.16a25 25 0 01-4.88.42c-3.85-.06-7.71-.12-11.54-.44a22.42 22.42 0 01-8.91-3 32 32 0 00-4.78-2.17c-2.58-.89-4.8-.06-6.67 2-.71.77-1.47 1.5-2.2 2.25zM265.22 85.43a12.06 12.06 0 01-1.15-.69 14.4 14.4 0 00-6.5-3.15 41.32 41.32 0 00-6.1-.11c-1.07 0-2.14.14-3.2.22-1.68.12-1.87 0-2.45-1.75-1-2.81-1.84-5.66-3-8.37-1.49-3.46-3.21-6.79-4.86-10.16-.11-.24-.44-.36-.66-.53-.18.26-.48.51-.51.79a31.56 31.56 0 00.61 12c.72 2.52 1.29 5.08 1.91 7.63.29 1.23 0 1.59-1.23 1.29a18.42 18.42 0 00-8.15-.55c-.88.16-1.15-.47-1.15-1.3 0-5-.16-10 0-15a118.6 118.6 0 012.54-22.24q1.84-8.4 4.37-16.62a46.49 46.49 0 015.92-12.49c.62-.92 1.2-1 1.8-.17a4.35 4.35 0 004.54 1.81c2-.32 3.93-.83 5.89-1.25a9.59 9.59 0 011.18-.27 3.52 3.52 0 01.83.14c-.12.29-.17.68-.38.86-3.53 3.07-5.85 7.08-8 11.22a110.7 110.7 0 00-8.62 22.63 10.93 10.93 0 00-.19 1.51l.27.18a3.8 3.8 0 00.83-.71c2.51-3.72 5.05-7.41 7.48-11.19 3.54-5.49 6.88-11.13 10.55-16.52a39.63 39.63 0 015.36-5.64c.76-.75 1.33-.61 1.93.28q4.51 6.77 9 13.56a1.82 1.82 0 01-.19 2.64 6 6 0 01-5.57 2.26 24.38 24.38 0 00-4.59-.21 10.72 10.72 0 00-6.55 3.47c-4.38 4.33-8.71 8.72-13.06 13.09-1 1-1.94 1.93-2.88 2.93a3.56 3.56 0 00-.42 1c.32.13.69.43 1 .36a39.81 39.81 0 004.13-1.21c1.42-.51 2.78-1.21 4.2-1.74 1.07-.41 1.42-.07 1.59 1.1.43 3.05.82 6.11 1.41 9.13.71 3.6 2.84 6.44 4.82 9.37 2.37 3.52 4.64 7.12 6.93 10.71a8.6 8.6 0 01.6 1.46z"/>
		<path class="cls-3" d="M229 106.1a3.89 3.89 0 001 .1c8.61-1 16.84 4.45 20.3 14a56.61 56.61 0 012.64 10.67 82.06 82.06 0 004.52 16.57 50.06 50.06 0 006.37 12.25c.69.93 1.53 1.76 2.29 2.64.26.3.48.62.72.93l-.12.3a9.24 9.24 0 01-1.48-.2A30.64 30.64 0 01249 152.74a50.11 50.11 0 01-10.17-22.69 45.55 45.55 0 00-4.53-14.1 13.88 13.88 0 00-7.9-7.08 9.85 9.85 0 00-1.07-.27c-1.14-.21-1.52.06-1.71 1.28a50.84 50.84 0 00-.39 11.76c.19 2.55.46 5.1.68 7.65a6.48 6.48 0 01-.07 1.07l-.34.09c-.22-.46-.47-.91-.66-1.39a25 25 0 00-3.66-6.85c-1.92-2.37-4.12-3-6.91-2-.88.33-1.71.8-2.56 1.2-.29.14-.58.26-1.15.5a11 11 0 01.36-1.51c1.67-4 3.31-8 5.05-11.93a57 57 0 004.3-18.09c.26-3 .35-6 .53-9a7.15 7.15 0 01.26-1.11l.46-.26c.6.75 1.15 1.54 1.78 2.25a10.76 10.76 0 009.84 3.88 6.8 6.8 0 011.71.22c-.31.47-.64.93-.92 1.41a59.42 59.42 0 00-3.55 6.18c-1.27 2.89-2.21 6-3.26 9-.11.31-.13.93 0 1a1.31 1.31 0 001.08 0c4.82-2 8.48-5.29 10-10.71a17.52 17.52 0 00.55-1.69c.19-1.14.87-1.42 1.86-1.45a51.28 51.28 0 0017.73-3.21 5.73 5.73 0 011.67-.13 8.56 8.56 0 01-.68 1.54c-1.44 2.07-2.88 4.14-4.4 6.14-3 4-7.26 5.75-11.74 7-3.68 1-7.47 1.68-10.93 3.45-.5.25-1 .54-1.46.81zM175.62 100.47c-.11-2.46-.24-4.91-.33-7.36a5.07 5.07 0 01.23-1.26 9.06 9.06 0 011.09.52c1.53 1 3 2.15 5 1.75a6 6 0 002.25-1 29.26 29.26 0 002.31-2.12 6.36 6.36 0 011-.61c.19.38.52.74.54 1.13a49.29 49.29 0 01.15 6.31c-.43 5.52-1.08 11-1.56 16.54-.36 4.23-.66 8.48.7 12.62.69 2.09 2.24 3.25 4.44 1.88a13.22 13.22 0 013.05-1.28 3.68 3.68 0 002.16-2 23.77 23.77 0 002.36-9.31q.77-9.79 1.1-19.63a11 11 0 00-1.39-6.69c-.38-.58.07-.78.53-.7a15.84 15.84 0 012.74.65c4 1.5 7.27.22 10.15-2.75a3.75 3.75 0 011-.52 3.53 3.53 0 01.13 1.18c-.87 3.46-1.66 7-2.73 10.34-2.34 7.42-4.71 14.84-7.31 22.17a26.45 26.45 0 01-5.78 10 27.89 27.89 0 01-2.67 2.18 29.29 29.29 0 00-2.42 1.86 18.45 18.45 0 01-11.74 5.05c-3.69.34-5.94-1.39-7.1-5.09a24.45 24.45 0 01-.62-10.52c.49-3.79 1.16-7.55 1.71-11.33q.42-3 .68-6c.16-2 .2-4 .3-6z"/>
		<path class="cls-3" d="M287.89 166.67c-.64-.52-1.25-1.11-1.93-1.56s-1.68-1-2.53-1.42a21.73 21.73 0 01-2.47-1.34c-2.88-2.14-5.8-4.18-9.25-5.15a13.9 13.9 0 00-3.26-.49 1.81 1.81 0 01-1.92-1.48c-.86-3.38-1.87-6.74-2.51-10.16-.85-4.51-1.63-9-2.06-13.61a108.53 108.53 0 01-.18-21.85c.09-.8.23-1.6.36-2.39.16-1 .56-1.23 1.54-1 3.52.68 7 1.34 10.56 2 .91.16 1.87 0 2.8.17a2.22 2.22 0 011.19.6c.1.1-.18.73-.39 1-2.57 3.76-3.34 8-3.33 12.55a47.13 47.13 0 002.49 13.53c1.66 5.47 3.44 10.91 5.2 16.35a6.11 6.11 0 00.9 1.87c2.56 3.25 3.37 7.35 5 11.08a5.3 5.3 0 01.17 1.08zM227.44 33.64a8.5 8.5 0 01-.35 1.34 56.12 56.12 0 00-4.35 25.45c.28 5.36 1 10.69 1.47 16a.78.78 0 010 .21c0 .53-.07 1.07-.11 1.61a8.5 8.5 0 01-1.44-.4c-2.15-1-4.29-2.13-6.43-3.22-.76-.38-1.08.07-1.37.72-.72 1.58-1.39 3.19-2.23 4.7a14 14 0 01-4.15 4.65c-2.71 2-5.17 1.7-7.67-.54-4.64-4.13-6.79-9.49-7.47-15.69-.37-3.41-1.08-6.78-1.46-10.2a31 31 0 00-1.79-8.71A19.3 19.3 0 00188 45.7c-1.09-1.51-2-1.55-3.55-.55l-.52.31c-.45-1.84 1-3.83 2.67-3.67a38.1 38.1 0 014.85.83 6.68 6.68 0 013.72 2.72 26.46 26.46 0 014.65 10.52c.85 3.78 1.33 7.65 2.05 11.47a33.21 33.21 0 002.9 9.15 10.85 10.85 0 001.52 2.21 2.27 2.27 0 003.63.09 11.83 11.83 0 002.79-5.28 47.8 47.8 0 001.69-14.77 89.38 89.38 0 00-1.78-16.4c-.23-1.15 0-1.52 1.14-1.48 3.51.14 6.29-1.65 8.93-3.76 1-.83 2-1.8 3-2.67.45-.38 1-.69 1.43-1zM286.53 83.61l-1.44-1a13.16 13.16 0 00-11.4-2.4c-.88.22-1.75.47-2.62.72-1.13.32-1.72 0-2-1.22a30 30 0 01-.35-13.87c1.07-4.63 2.64-9.12 4-13.67 1.15-3.77 2.34-7.54 3.49-11.31.43-1.42.71-1.64 2.09-1.26a8.19 8.19 0 005.7-.5 3.46 3.46 0 011.55-.27c1.44.11 2.87.31 4.3.47 1.18.14 1.38.59.76 1.64-1.49 2.52-3 5-4.45 7.61A34.92 34.92 0 00282.47 60a24.71 24.71 0 00.74 10c1 4 2.23 7.86 3.33 11.79a15.15 15.15 0 01.29 1.66zM296.6 26.06c-.13 1.15-.19 2.09-.35 3-.51 3-2.37 4.81-5.23 4.83a40.11 40.11 0 01-5.64-.65c-.37 0-.71-.21-1.07-.27a3.86 3.86 0 01-3.57-3.5 12.83 12.83 0 012.26-9.75c1.47-2.1 3.24-2.46 5.38-2.28 1.06.1 2.12.23 3.17.43a5.52 5.52 0 014.47 4.55c.33 1.25.42 2.58.58 3.64zM268.81 100.84a26.68 26.68 0 01-3.58-.86 5 5 0 01-1.89-8 6.06 6.06 0 014.46-2.29 8.9 8.9 0 015.65 1.46 4.88 4.88 0 01-.08 8.37 9.78 9.78 0 01-4.56 1.32zM288.77 105.79c-2.32-1-5.5-1.17-7.18-4.24-1.52-2.76-.92-4.86 1.71-6.42a8.18 8.18 0 019.7 1.75 5.22 5.22 0 01.63 5.71 5.05 5.05 0 01-4.86 3.2z"/>
		<path d="M194.38 9.69a5.69 5.69 0 01-.59.76 49.28 49.28 0 00-9.78 13 58.31 58.31 0 00-4.72 13.16 59.3 59.3 0 01-2.91 8.61c-2.13 4.83-6.19 7.07-10.93 8.19a2.68 2.68 0 00-.59.12c-.25.14-.6.32-.64.54a.94.94 0 00.35.78 46.43 46.43 0 006.15 3.25c3.64 1.38 7.11.3 10.43-1.48 1.38-.74 1.67-.49 1.79 1.18.18 2.48.35 5 .7 7.42a16.3 16.3 0 003.77 7.67c2.3 2.92 4.54 5.9 6.79 8.87a12.23 12.23 0 01.76 1.39l-1.44-.31a14.28 14.28 0 00-13.77 4.09 4.82 4.82 0 01-.78.56 4.29 4.29 0 01-.32-1.12 33 33 0 00-1.17-9.88A32.63 32.63 0 00172 66.16c-2.29-3-4.92-5.81-7.43-8.67a3.48 3.48 0 00-1.08-.58 4.18 4.18 0 00-.08 1.35c1.33 4.68 2.81 9.3 4 14 1 3.92 1.71 7.92 2.55 11.89a2.31 2.31 0 01.08.73c-.05.32-.1.79-.29.89a1.1 1.1 0 01-.9-.18c-1.49-.88-2.91-1.88-4.43-2.68-3.17-1.68-6.4-1.41-9.63-.11-.34.14-.93.26-1.08.08a1.63 1.63 0 01-.23-1.22c2-9.18.24-17.72-4-25.77q-5.67-10.65-11.75-21.07a29.23 29.23 0 00-5-6.17A9.63 9.63 0 00124.3 26a2 2 0 01-.69.05c-.24-.05-.57-.16-.65-.34a.85.85 0 01.16-.74c3.19-3.64 6.94-6.26 11.75-6.86 3.71-.46 7.48-.64 11-2.32 1.4-.67 2.74-1.46 4.12-2.17.28-.14.74-.34.88-.21a1.37 1.37 0 01.33 1 30.41 30.41 0 00.35 9.85 110.2 110.2 0 003 10.77c1.42 4 3.18 7.87 4.87 11.76a7.13 7.13 0 001.39 1.64 7.43 7.43 0 00.95-1.8q1.44-6.72 2.74-13.48c1-5.32 3.45-9.63 7.95-12.46a172.14 172.14 0 0119-10.45 24.17 24.17 0 012.68-.92z" fill="url(#verloop)"/>
		<path d="M133.55 160c.18-.68.32-1.37.54-2 1.23-3.71 2.37-7.46 3.76-11.1.93-2.43 2.21-4.71 3.35-7.06 1.59-3.28 3.22-6.54 4.78-9.83 1.76-3.7 3.59-7.38 5.15-11.17 2.51-6.1 4.29-12.43 4-19.16a26.49 26.49 0 00-1.13-6 7.18 7.18 0 00-3.24-4l.07-.38a6.38 6.38 0 011.62-.09c3.13.59 6.25 1.2 9.36 1.9 1.83.41 3.61 1 5.43 1.51a1.73 1.73 0 011.39 2 80.24 80.24 0 01-2.37 18.21c-1.63 7.06-3.39 14.09-4.79 21.2-1.21 6.08-2 12.26-1.26 18.51a37.42 37.42 0 001 5.25 2.3 2.3 0 001.37 1.34 21.23 21.23 0 007.41 1.1 7.5 7.5 0 005.68-3c2.46-3.31 4.69-6.82 7.06-10.21 1.56-2.22 2.95-4.67 4.87-6.51 2.9-2.77 6.38-4.57 10.54-3.67a34.38 34.38 0 013.65 1.37 18.14 18.14 0 003.36.9c.86.12 1.16.52 1.08 1.28-.1 1-.33 2-.47 3-.69 4.82-2.33 9.36-3.81 13.94a1.72 1.72 0 01-.88 1c-.23.07-.68-.43-1-.75-1.68-1.95-3.3-4-5-5.87a12.71 12.71 0 00-5.41-3.3c-1.8-.64-3.26.28-4.44 1.5-1.88 1.94-3.61 4-5.41 6.07-2 2.24-3.95 4.6-7 5.16a25 25 0 01-4.88.42c-3.85-.06-7.71-.12-11.54-.44a22.42 22.42 0 01-8.91-3 32 32 0 00-4.78-2.17c-2.58-.89-4.8-.06-6.67 2-.71.77-1.47 1.5-2.2 2.25z" fill="url(#verloop)"/>
		<path d="M265.22 85.43a12.06 12.06 0 01-1.15-.69 14.4 14.4 0 00-6.5-3.15 41.32 41.32 0 00-6.1-.11c-1.07 0-2.14.14-3.2.22-1.68.12-1.87 0-2.45-1.75-1-2.81-1.84-5.66-3-8.37-1.49-3.46-3.21-6.79-4.86-10.16-.11-.24-.44-.36-.66-.53-.18.26-.48.51-.51.79a31.56 31.56 0 00.61 12c.72 2.52 1.29 5.08 1.91 7.63.29 1.23 0 1.59-1.23 1.29a18.42 18.42 0 00-8.15-.55c-.88.16-1.15-.47-1.15-1.3 0-5-.16-10 0-15a118.6 118.6 0 012.54-22.24q1.84-8.4 4.37-16.62a46.49 46.49 0 015.92-12.49c.62-.92 1.2-1 1.8-.17a4.35 4.35 0 004.54 1.81c2-.32 3.93-.83 5.89-1.25a9.59 9.59 0 011.18-.27 3.52 3.52 0 01.83.14c-.12.29-.17.68-.38.86-3.53 3.07-5.85 7.08-8 11.22a110.7 110.7 0 00-8.62 22.63 10.93 10.93 0 00-.19 1.51l.27.18a3.8 3.8 0 00.83-.71c2.51-3.72 5.05-7.41 7.48-11.19 3.54-5.49 6.88-11.13 10.55-16.52a39.63 39.63 0 015.36-5.64c.76-.75 1.33-.61 1.93.28q4.51 6.77 9 13.56a1.82 1.82 0 01-.19 2.64 6 6 0 01-5.57 2.26 24.38 24.38 0 00-4.59-.21 10.72 10.72 0 00-6.55 3.47c-4.38 4.33-8.71 8.72-13.06 13.09-1 1-1.94 1.93-2.88 2.93a3.56 3.56 0 00-.42 1c.32.13.69.43 1 .36a39.81 39.81 0 004.13-1.21c1.42-.51 2.78-1.21 4.2-1.74 1.07-.41 1.42-.07 1.59 1.1.43 3.05.82 6.11 1.41 9.13.71 3.6 2.84 6.44 4.82 9.37 2.37 3.52 4.64 7.12 6.93 10.71a8.6 8.6 0 01.6 1.46z" fill="url(#verloop)"/>
		<path d="M229 106.1a3.89 3.89 0 001 .1c8.61-1 16.84 4.45 20.3 14a56.61 56.61 0 012.64 10.67 82.06 82.06 0 004.52 16.57 50.06 50.06 0 006.37 12.25c.69.93 1.53 1.76 2.29 2.64.26.3.48.62.72.93l-.12.3a9.24 9.24 0 01-1.48-.2A30.64 30.64 0 01249 152.74a50.11 50.11 0 01-10.17-22.69 45.55 45.55 0 00-4.53-14.1 13.88 13.88 0 00-7.9-7.08 9.85 9.85 0 00-1.07-.27c-1.14-.21-1.52.06-1.71 1.28a50.84 50.84 0 00-.39 11.76c.19 2.55.46 5.1.68 7.65a6.48 6.48 0 01-.07 1.07l-.34.09c-.22-.46-.47-.91-.66-1.39a25 25 0 00-3.66-6.85c-1.92-2.37-4.12-3-6.91-2-.88.33-1.71.8-2.56 1.2-.29.14-.58.26-1.15.5a11 11 0 01.36-1.51c1.67-4 3.31-8 5.05-11.93a57 57 0 004.3-18.09c.26-3 .35-6 .53-9a7.15 7.15 0 01.26-1.11l.46-.26c.6.75 1.15 1.54 1.78 2.25a10.76 10.76 0 009.84 3.88 6.8 6.8 0 011.71.22c-.31.47-.64.93-.92 1.41a59.42 59.42 0 00-3.55 6.18c-1.27 2.89-2.21 6-3.26 9-.11.31-.13.93 0 1a1.31 1.31 0 001.08 0c4.82-2 8.48-5.29 10-10.71a17.52 17.52 0 00.55-1.69c.19-1.14.87-1.42 1.86-1.45a51.28 51.28 0 0017.73-3.21 5.73 5.73 0 011.67-.13 8.56 8.56 0 01-.68 1.54c-1.44 2.07-2.88 4.14-4.4 6.14-3 4-7.26 5.75-11.74 7-3.68 1-7.47 1.68-10.93 3.45-.5.25-1 .54-1.46.81z" fill="url(#verloop)"/>
		<path d="M175.62 100.47c-.11-2.46-.24-4.91-.33-7.36a5.07 5.07 0 01.23-1.26 9.06 9.06 0 011.09.52c1.53 1 3 2.15 5 1.75a6 6 0 002.25-1 29.26 29.26 0 002.31-2.12 6.36 6.36 0 011-.61c.19.38.52.74.54 1.13a49.29 49.29 0 01.15 6.31c-.43 5.52-1.08 11-1.56 16.54-.36 4.23-.66 8.48.7 12.62.69 2.09 2.24 3.25 4.44 1.88a13.22 13.22 0 013.05-1.28 3.68 3.68 0 002.16-2 23.77 23.77 0 002.36-9.31q.77-9.79 1.1-19.63a11 11 0 00-1.39-6.69c-.38-.58.07-.78.53-.7a15.84 15.84 0 012.74.65c4 1.5 7.27.22 10.15-2.75a3.75 3.75 0 011-.52 3.53 3.53 0 01.13 1.18c-.87 3.46-1.66 7-2.73 10.34-2.34 7.42-4.71 14.84-7.31 22.17a26.45 26.45 0 01-5.78 10 27.89 27.89 0 01-2.67 2.18 29.29 29.29 0 00-2.42 1.86 18.45 18.45 0 01-11.74 5.05c-3.69.34-5.94-1.39-7.1-5.09a24.45 24.45 0 01-.62-10.52c.49-3.79 1.16-7.55 1.71-11.33q.42-3 .68-6c.16-2 .2-4 .3-6z" fill="url(#verloop)"/>
		<path d="M287.89 166.67c-.64-.52-1.25-1.11-1.93-1.56s-1.68-1-2.53-1.42a21.73 21.73 0 01-2.47-1.34c-2.88-2.14-5.8-4.18-9.25-5.15a13.9 13.9 0 00-3.26-.49 1.81 1.81 0 01-1.92-1.48c-.86-3.38-1.87-6.74-2.51-10.16-.85-4.51-1.63-9-2.06-13.61a108.53 108.53 0 01-.18-21.85c.09-.8.23-1.6.36-2.39.16-1 .56-1.23 1.54-1 3.52.68 7 1.34 10.56 2 .91.16 1.87 0 2.8.17a2.22 2.22 0 011.19.6c.1.1-.18.73-.39 1-2.57 3.76-3.34 8-3.33 12.55a47.13 47.13 0 002.49 13.53c1.66 5.47 3.44 10.91 5.2 16.35a6.11 6.11 0 00.9 1.87c2.56 3.25 3.37 7.35 5 11.08a5.3 5.3 0 01.17 1.08z" fill="url(#verloop)"/>
		<path d="M227.44 33.64a8.5 8.5 0 01-.35 1.34 56.12 56.12 0 00-4.35 25.45c.28 5.36 1 10.69 1.47 16a.78.78 0 010 .21c0 .53-.07 1.07-.11 1.61a8.5 8.5 0 01-1.44-.4c-2.15-1-4.29-2.13-6.43-3.22-.76-.38-1.08.07-1.37.72-.72 1.58-1.39 3.19-2.23 4.7a14 14 0 01-4.15 4.65c-2.71 2-5.17 1.7-7.67-.54-4.64-4.13-6.79-9.49-7.47-15.69-.37-3.41-1.08-6.78-1.46-10.2a31 31 0 00-1.79-8.71A19.3 19.3 0 00188 45.7c-1.09-1.51-2-1.55-3.55-.55l-.52.31c-.45-1.84 1-3.83 2.67-3.67a38.1 38.1 0 014.85.83 6.68 6.68 0 013.72 2.72 26.46 26.46 0 014.65 10.52c.85 3.78 1.33 7.65 2.05 11.47a33.21 33.21 0 002.9 9.15 10.85 10.85 0 001.52 2.21 2.27 2.27 0 003.63.09 11.83 11.83 0 002.79-5.28 47.8 47.8 0 001.69-14.77 89.38 89.38 0 00-1.78-16.4c-.23-1.15 0-1.52 1.14-1.48 3.51.14 6.29-1.65 8.93-3.76 1-.83 2-1.8 3-2.67.45-.38 1-.69 1.43-1z" fill="url(#verloop)"/>
		<path d="M286.53 83.61l-1.44-1a13.16 13.16 0 00-11.4-2.4c-.88.22-1.75.47-2.62.72-1.13.32-1.72 0-2-1.22a30 30 0 01-.35-13.87c1.07-4.63 2.64-9.12 4-13.67 1.15-3.77 2.34-7.54 3.49-11.31.43-1.42.71-1.64 2.09-1.26a8.19 8.19 0 005.7-.5 3.46 3.46 0 011.55-.27c1.44.11 2.87.31 4.3.47 1.18.14 1.38.59.76 1.64-1.49 2.52-3 5-4.45 7.61A34.92 34.92 0 00282.47 60a24.71 24.71 0 00.74 10c1 4 2.23 7.86 3.33 11.79a15.15 15.15 0 01.29 1.66z" fill="url(#verloop)"/>
		<path d="M296.6 26.06c-.13 1.15-.19 2.09-.35 3-.51 3-2.37 4.81-5.23 4.83a40.11 40.11 0 01-5.64-.65c-.37 0-.71-.21-1.07-.27a3.86 3.86 0 01-3.57-3.5 12.83 12.83 0 012.26-9.75c1.47-2.1 3.24-2.46 5.38-2.28 1.06.1 2.12.23 3.17.43a5.52 5.52 0 014.47 4.55c.33 1.25.42 2.58.58 3.64z" fill="url(#verloop)"/>
		<path d="M268.81 100.84a26.68 26.68 0 01-3.58-.86 5 5 0 01-1.89-8 6.06 6.06 0 014.46-2.29 8.9 8.9 0 015.65 1.46 4.88 4.88 0 01-.08 8.37 9.78 9.78 0 01-4.56 1.32z" fill="url(#verloop)"/>
		<path d="M288.77 105.79c-2.32-1-5.5-1.17-7.18-4.24-1.52-2.76-.92-4.86 1.71-6.42a8.18 8.18 0 019.7 1.75 5.22 5.22 0 01.63 5.71 5.05 5.05 0 01-4.86 3.2z" fill="url(#verloop)"/>
	</g>
</svg>